HIERARCHY
ROOT Root
{
  OFFSET 0.0 0.0 0.0
  CHANNELS 6 Xposition Yposition Zposition Zrotation Yrotation Xrotation
  JOINT Hips
  {
    OFFSET 0.0 100.0 0.0
    CHANNELS 6 Xposition Yposition Zposition Zrotation Yrotation Xrotation
    JOINT Spine1
    {
      OFFSET 5.003913 -0.037094 -0.013727
      CHANNELS 3 Zrotation Yrotation Xrotation
      JOINT Spine2
      {
        OFFSET 7.125363 -1e-06 0.0
        CHANNELS 3 Zrotation Yrotation Xrotation
        JOINT Chest
        {
          OFFSET 7.594027 1e-06 0.0
          CHANNELS 3 Zrotation Yrotation Xrotation
          JOINT Neck1
          {
            OFFSET 26.313086 -0.460272 -0.181672
            CHANNELS 3 Zrotation Yrotation Xrotation
            JOINT Neck2
            {
              OFFSET 8.045911 0.0 0.0
              CHANNELS 3 Zrotation Yrotation Xrotation
              JOINT Head
              {
                OFFSET 6.432774 0.0 0.0
                CHANNELS 3 Zrotation Yrotation Xrotation
                JOINT HeadEnd
                {
                  OFFSET 16.169773 0.06451 0.00362
                  CHANNELS 3 Zrotation Yrotation Xrotation
                }
                JOINT Jaw
                {
                  OFFSET 0.108741 3.12938 0.002639
                  CHANNELS 3 Zrotation Yrotation Xrotation
                }
                JOINT LeftEye
                {
                  OFFSET 4.45173 8.166359 3.206392
                  CHANNELS 3 Zrotation Yrotation Xrotation
                }
                JOINT RightEye
                {
                  OFFSET 4.436895 8.135758 -3.222429
                  CHANNELS 3 Zrotation Yrotation Xrotation
                }
              }
            }
          }
          JOINT LeftShoulder
          {
            OFFSET 23.218927 5.195579 1.621656
            CHANNELS 3 Zrotation Yrotation Xrotation
            JOINT LeftArm
            {
              OFFSET 15.902118 2e-06 -2e-06
              CHANNELS 3 Zrotation Yrotation Xrotation
              JOINT LeftForeArm
              {
                OFFSET 28.739307 0.0 -1e-06
                CHANNELS 3 Zrotation Yrotation Xrotation
                JOINT LeftHand
                {
                  OFFSET 27.093981 -4e-06 0.0
                  CHANNELS 3 Zrotation Yrotation Xrotation
                  JOINT LeftHandThumb1
                  {
                    OFFSET 2.276781 3.380274 0.83384
                    CHANNELS 3 Zrotation Yrotation Xrotation
                    JOINT LeftHandThumb2
                    {
                      OFFSET 4.705309 -1e-06 -1e-06
                      CHANNELS 3 Zrotation Yrotation Xrotation
                      JOINT LeftHandThumb3
                      {
                        OFFSET 2.798515 0.0 3e-06
                        CHANNELS 3 Zrotation Yrotation Xrotation
                        JOINT LeftHandThumbEnd
                        {
                          OFFSET 3.180793 4e-06 -4e-06
                          CHANNELS 3 Zrotation Yrotation Xrotation
                        }
                      }
                    }
                  }
                  JOINT LeftHandIndex1
                  {
                    OFFSET 3.247786 2.352677 0.137192
                    CHANNELS 3 Zrotation Yrotation Xrotation
                    JOINT LeftHandIndex2
                    {
                      OFFSET 6.367095 1e-06 0.0
                      CHANNELS 3 Zrotation Yrotation Xrotation
                      JOINT LeftHandIndex3
                      {
                        OFFSET 3.662364 0.0 0.0
                        CHANNELS 3 Zrotation Yrotation Xrotation
                        JOINT LeftHandIndex4
                        {
                          OFFSET 2.329242 4e-06 -4e-06
                          CHANNELS 3 Zrotation Yrotation Xrotation
                          JOINT LeftHandIndexEnd
                          {
                            OFFSET 2.767823 1e-06 0.0
                            CHANNELS 3 Zrotation Yrotation Xrotation
                          }
                        }
                      }
                    }
                  }
                  JOINT LeftHandMiddle1
                  {
                    OFFSET 3.163612 0.945023 -0.406112
                    CHANNELS 3 Zrotation Yrotation Xrotation
                    JOINT LeftHandMiddle2
                    {
                      OFFSET 6.276789 3e-06 0.0
                      CHANNELS 3 Zrotation Yrotation Xrotation
                      JOINT LeftHandMiddle3
                      {
                        OFFSET 4.35652 -1e-06 4e-06
                        CHANNELS 3 Zrotation Yrotation Xrotation
                        JOINT LeftHandMiddle4
                        {
                          OFFSET 2.996877 0.0 8e-06
                          CHANNELS 3 Zrotation Yrotation Xrotation
                          JOINT LeftHandMiddleEnd
                          {
                            OFFSET 2.323256 3e-06 -4e-06
                            CHANNELS 3 Zrotation Yrotation Xrotation
                          }
                        }
                      }
                    }
                  }
                  JOINT LeftHandRing1
                  {
                    OFFSET 2.882606 -0.309162 0.107445
                    CHANNELS 3 Zrotation Yrotation Xrotation
                    JOINT LeftHandRing2
                    {
                      OFFSET 6.033198 0.0 4e-06
                      CHANNELS 3 Zrotation Yrotation Xrotation
                      JOINT LeftHandRing3
                      {
                        OFFSET 4.350578 3e-06 0.0
                        CHANNELS 3 Zrotation Yrotation Xrotation
                        JOINT LeftHandRing4
                        {
                          OFFSET 2.651321 2e-06 -7e-06
                          CHANNELS 3 Zrotation Yrotation Xrotation
                          JOINT LeftHandRingEnd
                          {
                            OFFSET 1.937663 1e-06 -4e-06
                            CHANNELS 3 Zrotation Yrotation Xrotation
                          }
                        }
                      }
                    }
                  }
                  JOINT LeftHandPinky1
                  {
                    OFFSET 2.865315 -1.525436 0.575687
                    CHANNELS 3 Zrotation Yrotation Xrotation
                    JOINT LeftHandPinky2
                    {
                      OFFSET 5.54936 1e-06 -8e-06
                      CHANNELS 3 Zrotation Yrotation Xrotation
                      JOINT LeftHandPinky3
                      {
                        OFFSET 3.070974 0.0 -4e-06
                        CHANNELS 3 Zrotation Yrotation Xrotation
                        JOINT LeftHandPinky4
                        {
                          OFFSET 1.549672 1e-06 0.0
                          CHANNELS 3 Zrotation Yrotation Xrotation
                          JOINT LeftHandPinkyEnd
                          {
                            OFFSET 1.952123 0.0 0.0
                            CHANNELS 3 Zrotation Yrotation Xrotation
                          }
                        }
                      }
                    }
                  }
                }
              }
            }
          }
          JOINT RightShoulder
          {
            OFFSET 23.161716 5.296122 -1.380114
            CHANNELS 3 Zrotation Yrotation Xrotation
            JOINT RightArm
            {
              OFFSET -16.027195 -2e-06 1.1e-05
              CHANNELS 3 Zrotation Yrotation Xrotation
              JOINT RightForeArm
              {
                OFFSET -28.736639 4e-06 2e-06
                CHANNELS 3 Zrotation Yrotation Xrotation
                JOINT RightHand
                {
                  OFFSET -27.133619 6e-06 0.0
                  CHANNELS 3 Zrotation Yrotation Xrotation
                  JOINT RightHandThumb1
                  {
                    OFFSET -2.274328 -3.351035 -0.83067
                    CHANNELS 3 Zrotation Yrotation Xrotation
                    JOINT RightHandThumb2
                    {
                      OFFSET -4.703594 -3e-06 2e-06
                      CHANNELS 3 Zrotation Yrotation Xrotation
                      JOINT RightHandThumb3
                      {
                        OFFSET -2.794935 -4e-06 -3e-06
                        CHANNELS 3 Zrotation Yrotation Xrotation
                        JOINT RightHandThumbEnd
                        {
                          OFFSET -3.183852 4e-06 1e-06
                          CHANNELS 3 Zrotation Yrotation Xrotation
                        }
                      }
                    }
                  }
                  JOINT RightHandIndex1
                  {
                    OFFSET -3.253496 -2.33755 -0.127667
                    CHANNELS 3 Zrotation Yrotation Xrotation
                    JOINT RightHandIndex2
                    {
                      OFFSET -6.344434 0.0 0.0
                      CHANNELS 3 Zrotation Yrotation Xrotation
                      JOINT RightHandIndex3
                      {
                        OFFSET -3.654871 0.0 -8e-06
                        CHANNELS 3 Zrotation Yrotation Xrotation
                        JOINT RightHandIndex4
                        {
                          OFFSET -2.327586 -1e-06 0.0
                          CHANNELS 3 Zrotation Yrotation Xrotation
                          JOINT RightHandIndexEnd
                          {
                            OFFSET -2.770001 3e-06 8e-06
                            CHANNELS 3 Zrotation Yrotation Xrotation
                          }
                        }
                      }
                    }
                  }
                  JOINT RightHandMiddle1
                  {
                    OFFSET -3.168223 -0.944764 0.411762
                    CHANNELS 3 Zrotation Yrotation Xrotation
                    JOINT RightHandMiddle2
                    {
                      OFFSET -6.266691 -1e-06 -4e-06
                      CHANNELS 3 Zrotation Yrotation Xrotation
                      JOINT RightHandMiddle3
                      {
                        OFFSET -4.348901 0.0 0.0
                        CHANNELS 3 Zrotation Yrotation Xrotation
                        JOINT RightHandMiddle4
                        {
                          OFFSET -3.00024 2e-06 -4e-06
                          CHANNELS 3 Zrotation Yrotation Xrotation
                          JOINT RightHandMiddleEnd
                          {
                            OFFSET -2.321477 -4e-06 -4e-06
                            CHANNELS 3 Zrotation Yrotation Xrotation
                          }
                        }
                      }
                    }
                  }
                  JOINT RightHandRing1
                  {
                    OFFSET -2.885654 0.293261 -0.119232
                    CHANNELS 3 Zrotation Yrotation Xrotation
                    JOINT RightHandRing2
                    {
                      OFFSET -6.032835 -1e-06 -4e-06
                      CHANNELS 3 Zrotation Yrotation Xrotation
                      JOINT RightHandRing3
                      {
                        OFFSET -4.33881 0.0 -4e-06
                        CHANNELS 3 Zrotation Yrotation Xrotation
                        JOINT RightHandRing4
                        {
                          OFFSET -2.654903 -4e-06 -4e-06
                          CHANNELS 3 Zrotation Yrotation Xrotation
                          JOINT RightHandRingEnd
                          {
                            OFFSET -1.935122 0.0 4e-06
                            CHANNELS 3 Zrotation Yrotation Xrotation
                          }
                        }
                      }
                    }
                  }
                  JOINT RightHandPinky1
                  {
                    OFFSET -2.866241 1.503904 -0.60527
                    CHANNELS 3 Zrotation Yrotation Xrotation
                    JOINT RightHandPinky2
                    {
                      OFFSET -5.553177 -2e-06 0.0
                      CHANNELS 3 Zrotation Yrotation Xrotation
                      JOINT RightHandPinky3
                      {
                        OFFSET -3.062664 -1e-06 -4e-06
                        CHANNELS 3 Zrotation Yrotation Xrotation
                        JOINT RightHandPinky4
                        {
                          OFFSET -1.546529 2e-06 4e-06
                          CHANNELS 3 Zrotation Yrotation Xrotation
                          JOINT RightHandPinkyEnd
                          {
                            OFFSET -1.952341 0.0 -4e-06
                            CHANNELS 3 Zrotation Yrotation Xrotation
                          }
                        }
                      }
                    }
                  }
                }
              }
            }
          }
        }
      }
    }
    JOINT LeftLeg
    {
      OFFSET -8.443107 2.567604 10.043214
      CHANNELS 3 Zrotation Yrotation Xrotation
      JOINT LeftShin
      {
        OFFSET 43.229198 1e-06 -1e-06
        CHANNELS 3 Zrotation Yrotation Xrotation
        JOINT LeftFoot
        {
          OFFSET 42.298611 1e-06 1e-06
          CHANNELS 3 Zrotation Yrotation Xrotation
          JOINT LeftToeBase
          {
            OFFSET 14.165858 1e-06 0.0
            CHANNELS 3 Zrotation Yrotation Xrotation
            JOINT LeftToeEnd
            {
              OFFSET 6.7141 -0.234461 0.0
              CHANNELS 3 Zrotation Yrotation Xrotation
            }
          }
        }
      }
    }
    JOINT RightLeg
    {
      OFFSET -8.303923 2.592729 -10.047278
      CHANNELS 3 Zrotation Yrotation Xrotation
      JOINT RightShin
      {
        OFFSET -43.369682 0.0 1e-06
        CHANNELS 3 Zrotation Yrotation Xrotation
        JOINT RightFoot
        {
          OFFSET -42.260784 4e-06 2e-06
          CHANNELS 3 Zrotation Yrotation Xrotation
          JOINT RightToeBase
          {
            OFFSET -14.222245 -2e-06 -1e-06
            CHANNELS 3 Zrotation Yrotation Xrotation
            JOINT RightToeEnd
            {
              OFFSET -6.660062 0.232574 -2e-06
              CHANNELS 3 Zrotation Yrotation Xrotation
            }
          }
        }
      }
    }
  }
}
MOTION
Frames: 4
Frame Time: 0.03333333333333333
0.0 0.0 0.0 0.0 -0.0 0.0 -12.212296 9.830915 33.235615 -130.159088 -88.279106 -47.141506 1.8859 -0.798025 -0.39899 -10.462249 0.123469 0.387961 10.147681 0.926207 -0.192062 -1.750044 0.700853 1.98819 -2.549266 -0.595255 -1.142095 -27.684702 -3.387925 2.285449 7e-06 -0.0 0.0 -0.241506 0.017478 -0.030931 -0.331205 0.084364 -0.022493 -0.349341 -0.03547 -0.037969 -20.228867 -67.598061 29.667852 38.788364 -71.743347 -82.067947 155.669968 1.273269 0.063812 2.086764 25.868744 22.199339 17.636633 -26.322733 52.41119 -19.466665 -14.395596 29.410389 0.0 -8.774822 -2e-06 15.536912 -17.80382 5.735292 -0.609777 -1.795654 -3.889328 -4.80709 -11.046814 -2.93785 3e-06 -20.976025 -0.0 -5.019972 -25.033564 -4.03188 7e-06 1e-06 -1e-06 -10.634535 -5.686973 -3.565588 10.573275 -17.922955 -3.1139 1e-06 -13.821214 1e-06 -0.501779 -31.181511 -4.027015 -9.888053 -57.757862 5.912773 -13.982714 -7.150199 -2.875041 13.772728 -8.401493 -3.218239 0.347733 -34.211559 0.771654 -0.963029 -17.733376 2.621019 -1e-06 -1e-06 0.0 -17.34642 -20.095222 -4.20178 21.757559 -1.638375 3.866428 1e-06 -6.338828 1e-06 -1.697589 -22.591755 -6.194009 -1e-06 -4e-06 -2e-06 158.161346 -78.567421 33.813263 -3.489044 -58.79771 -51.558887 158.945923 -0.617214 -0.983151 8.612363 33.077511 39.472874 22.182116 -20.375898 49.933327 -16.701815 -16.743526 28.476534 -3e-06 -12.690598 -1e-06 16.010698 -17.410715 2.510343 -0.10592 -1.513856 -4.275882 -5.039041 -5.612872 -2.953557 3e-06 -11.020525 -2e-06 -6.111297 -15.895334 -3.840471 -0.0 2e-06 0.0 -10.283367 -5.680288 -4.341839 11.028292 -11.302406 -2.372632 -1.384269 -14.238579 -6.32012 -0.625438 -26.924187 -3.827602 -3.870156 -49.900703 -4.206728 -13.708522 -7.363477 -3.72094 18.141146 -14.052739 -3.242674 5e-06 -18.78727 -1e-06 -0.429712 -8.456045 2.555503 -0.0 1e-06 -0.0 -15.923532 -20.094482 -5.473586 30.419207 -7.190825 1.735927 3e-06 -8.162925 -1e-06 -1.861902 -22.861469 -6.167942 -0.0 -2e-06 0.0 169.256958 -23.974871 -71.147469 29.654667 -19.454805 37.173325 -89.229485 29.903128 -16.499174 -9.145679 1.466912 2.571728 -0.999999 0.0 0.0 0.187266 -20.668953 -101.14373 10.026397 -17.888075 63.333469 -107.120964 33.957935 -17.544767 -18.8258 0.662462 1.377384 -1.000001 -0.0 0.0 
0.0 0.0 0.0 0.0 -0.0 0.0 -12.210428 9.818041 33.211823 -130.150833 -88.298538 -47.195549 1.881909 -0.798863 -0.4206 -10.477967 0.117995 0.381976 10.15547 0.944419 -0.16635 -1.70779 0.726306 1.991348 -2.551575 -0.648594 -1.206639 -27.711079 -3.290432 2.2693 6e-06 -0.0 -0.0 -0.245798 0.000864 -0.021403 -0.313717 0.059736 -0.004621 -0.333592 -0.043691 -0.036472 -20.114283 -67.555984 29.626625 38.814804 -71.795853 -82.002075 155.762634 1.300448 0.075098 2.1772 25.909609 22.64307 17.636625 -26.322729 52.411194 -19.466656 -14.395597 29.410389 -1e-06 -8.774819 -2e-06 15.523727 -17.817202 5.762029 -0.609777 -1.795653 -3.889329 -4.807088 -11.046809 -2.937849 4e-06 -20.976015 -1e-06 -5.01997 -25.033556 -4.031881 6e-06 -1e-06 -1e-06 -10.634531 -5.686969 -3.565588 10.573271 -17.922947 -3.113899 2e-06 -13.821206 1e-06 -0.501778 -31.181498 -4.027014 -9.863818 -57.799515 5.908236 -13.982712 -7.150197 -2.875042 13.772725 -8.401489 -3.21824 0.347732 -34.211544 0.771655 -0.963029 -17.73337 2.621018 -1e-06 -1e-06 -0.0 -17.346416 -20.095213 -4.201782 21.757555 -1.638374 3.866428 2e-06 -6.338824 0.0 -1.697588 -22.59174 -6.194007 -1e-06 -6e-06 -2e-06 158.354248 -78.558411 33.671734 -3.324706 -58.724724 -51.606777 158.863815 -0.623649 -0.953572 8.618206 33.149616 39.702888 22.182121 -20.375891 49.933308 -16.701807 -16.743521 28.476519 -2e-06 -12.690598 -3e-06 16.048607 -17.425398 2.515046 -0.10592 -1.513856 -4.27588 -5.039041 -5.612871 -2.953557 4e-06 -11.02052 -1e-06 -6.111297 -15.895334 -3.84047 -0.0 1e-06 0.0 -10.283369 -5.680287 -4.341839 11.028292 -11.302402 -2.37263 -1.384269 -14.238575 -6.32012 -0.625438 -26.924187 -3.8276 -3.843801 -49.957855 -4.233481 -13.708522 -7.363475 -3.72094 18.141146 -14.052739 -3.242671 5e-06 -18.787266 -1e-06 -0.42971 -8.456045 2.555504 -0.0 1e-06 -0.0 -15.923532 -20.094481 -5.473585 30.419205 -7.190823 1.735929 3e-06 -8.162922 -1e-06 -1.861902 -22.861464 -6.167939 -0.0 -2e-06 -0.0 169.271576 -24.043478 -71.191742 29.757139 -19.488029 37.200779 -89.265785 29.864702 -16.422604 -9.186724 1.463701 2.565015 -1.0 -0.0 1e-06 0.105734 -20.709694 -100.942543 10.183983 -18.007521 63.143848 -107.137451 33.988293 -17.515505 -18.802795 0.6644 1.365538 -1.000002 0.0 -0.0 
0.0 0.0 0.0 0.0 -0.0 0.0 -12.207153 9.797514 33.19492 -130.772873 -88.314957 -46.612705 1.873492 -0.79007 -0.434646 -10.491817 0.101194 0.376786 10.174551 0.940345 -0.136296 -1.687184 0.762683 1.97377 -2.549809 -0.693541 -1.239579 -27.715597 -3.221689 2.228515 7e-06 -0.0 -0.0 -0.248988 -0.007564 -0.016241 -0.300208 0.047906 0.006368 -0.31982 -0.047981 -0.037052 -20.066412 -67.499001 29.59376 38.909485 -71.838921 -81.858994 155.832245 1.33426 0.108896 2.313803 25.937756 23.080044 17.636621 -26.322721 52.411179 -19.466656 -14.395594 29.410378 -1e-06 -8.774819 -2e-06 15.51124 -17.813023 5.762187 -0.609776 -1.795653 -3.889328 -4.807086 -11.046807 -2.93785 5e-06 -20.976011 -0.0 -5.019967 -25.033556 -4.031881 6e-06 -1e-06 0.0 -10.63453 -5.686969 -3.565587 10.573272 -17.922947 -3.113901 3e-06 -13.821209 1e-06 -0.501776 -31.181498 -4.027014 -9.828398 -57.801384 5.885018 -13.98271 -7.150196 -2.875043 13.772725 -8.40149 -3.218238 0.347734 -34.21154 0.771653 -0.963028 -17.733366 2.621018 -1e-06 -1e-06 -0.0 -17.346409 -20.095211 -4.201782 21.757551 -1.638373 3.866428 2e-06 -6.338824 0.0 -1.697587 -22.591742 -6.194005 0.0 -4e-06 -2e-06 158.451736 -78.550278 33.617062 -3.097023 -58.675125 -51.691399 158.768356 -0.624198 -0.922746 8.656254 33.171116 39.900631 22.182108 -20.375887 49.933308 -16.701815 -16.743528 28.47653 -3e-06 -12.690601 -0.0 16.102207 -17.437191 2.523116 -0.105919 -1.513856 -4.275881 -5.039041 -5.612872 -2.953557 5e-06 -11.020524 -3e-06 -6.111295 -15.895334 -3.84047 -0.0 -2e-06 0.0 -10.283369 -5.680288 -4.341837 11.028296 -11.302406 -2.372634 -1.384267 -14.238581 -6.320122 -0.625435 -26.924191 -3.827602 -3.838128 -50.019165 -4.237161 -13.708524 -7.363474 -3.720939 18.14115 -14.052738 -3.242675 8e-06 -18.787264 -3e-06 -0.42971 -8.456045 2.555503 -0.0 1e-06 0.0 -15.923534 -20.094482 -5.473584 30.41921 -7.190826 1.735925 3e-06 -8.162925 -1e-06 -1.8619 -22.861469 -6.167942 -0.0 -2e-06 0.0 169.315781 -24.093609 -71.242302 29.842897 -19.476475 37.209137 -89.15567 29.795977 -16.297977 -9.209064 1.455711 2.562199 -1.0 -1e-06 0.0 0.053466 -20.742033 -100.809883 10.309134 -18.09881 63.005974 -107.112823 34.033485 -17.474401 -18.699488 0.664065 1.357528 -1.000001 0.0 0.0 
0.0 0.0 0.0 0.0 -0.0 0.0 -12.209376 9.763026 33.17234 -131.989044 -88.331993 -45.419998 1.867054 -0.782281 -0.444676 -10.503159 0.088785 0.370349 10.195549 0.911969 -0.111667 -1.678486 0.811243 1.951852 -2.543834 -0.708886 -1.24313 -27.685944 -3.219637 2.187288 6e-06 -0.0 0.0 -0.250468 -0.01117 -0.013616 -0.289635 0.045152 0.012482 -0.310427 -0.051523 -0.037919 -20.061441 -67.463333 29.534817 38.944496 -71.845848 -81.619995 155.863037 1.348077 0.154759 2.416798 25.966831 23.355095 17.636627 -26.322733 52.411205 -19.466661 -14.395594 29.410389 -0.0 -8.774821 -2e-06 15.508775 -17.790136 5.730728 -0.609777 -1.795654 -3.889329 -4.80709 -11.046813 -2.93785 4e-06 -20.976021 -1e-06 -5.019969 -25.033562 -4.031882 6e-06 -1e-06 1e-06 -10.634535 -5.686972 -3.565589 10.573272 -17.922953 -3.113901 3e-06 -13.821211 -0.0 -0.501777 -31.181505 -4.027017 -9.783388 -57.785648 5.84187 -13.982713 -7.150199 -2.875043 13.772729 -8.401491 -3.21824 0.347734 -34.211555 0.771651 -0.963029 -17.73337 2.621018 -1e-06 -1e-06 -0.0 -17.346418 -20.095221 -4.201782 21.757555 -1.638373 3.866429 2e-06 -6.338826 0.0 -1.697589 -22.591751 -6.194008 -1e-06 -4e-06 -2e-06 158.381073 -78.558311 33.726959 -2.842269 -58.634243 -51.776455 158.671478 -0.647722 -0.89476 8.772628 33.178963 40.034828 22.182112 -20.375898 49.933331 -16.701818 -16.743534 28.476542 -3e-06 -12.690603 1e-06 16.154499 -17.444469 2.529881 -0.105918 -1.513856 -4.275883 -5.039042 -5.612873 -2.953557 4e-06 -11.020527 -2e-06 -6.111299 -15.895332 -3.840472 -0.0 -4e-06 0.0 -10.283371 -5.680289 -4.341839 11.028297 -11.302407 -2.372634 -1.384269 -14.238586 -6.320124 -0.625437 -26.924194 -3.827603 -3.857372 -50.099209 -4.205632 -13.708527 -7.363478 -3.720939 18.141153 -14.05274 -3.242677 6e-06 -18.78727 -2e-06 -0.429711 -8.456047 2.555503 -0.0 -0.0 -1e-06 -15.923538 -20.09449 -5.473585 30.419218 -7.190826 1.735924 2e-06 -8.162927 -1e-06 -1.861902 -22.861475 -6.167944 -1e-06 -2e-06 -1e-06 169.376068 -24.142069 -71.320633 29.93107 -19.472353 37.214508 -89.015915 29.738323 -16.19829 -9.195401 1.449167 2.563273 -1.0 -0.0 0.0 -0.001447 -20.789803 -100.738609 10.452703 -18.242945 62.921555 -107.073151 34.080948 -17.381538 -18.547272 0.66096 1.355229 -1.000003 -0.0 0.0 
